<svg width="200" height="52" viewBox="0 0 200 52" fill="none" xmlns="http://www.w3.org/2000/svg">
<path d="M71.9432 27.4411H82.9298L82.9687 30.0033H71.7491L71.9432 27.4411ZM76.6407 13.8146L77.6889 15.251L70.7009 36.2148C70.7009 36.3442 70.8303 36.4736 71.0892 36.603C71.348 36.7066 71.6715 36.7842 72.0597 36.836C72.4479 36.8877 72.862 36.9136 73.302 36.9136H73.8843V39.1265H65.6541V36.9136H65.8482C66.4435 36.9136 66.9093 36.8101 67.2458 36.603C67.6081 36.3701 67.9058 35.9042 68.1387 35.2055L76.0972 11.5629H82.0758L90.306 35.7878C90.4613 36.2795 90.7201 36.5901 91.0824 36.7195C91.4707 36.8489 91.9365 36.9136 92.48 36.9136H92.6741V39.1265H80.9111V36.9136H81.5322C81.9463 36.9136 82.3604 36.9007 82.7745 36.8748C83.1887 36.8489 83.5251 36.8101 83.7839 36.7583C84.0686 36.6807 84.211 36.603 84.211 36.5254L76.6407 13.8146ZM105.33 47.7838H93.8003V45.6874H93.8779C94.3438 45.6874 94.7579 45.6485 95.1202 45.5709C95.4826 45.5191 95.7673 45.4027 95.9743 45.2215C96.1814 45.0403 96.2849 44.7815 96.2849 44.4451V22.9377C96.2849 22.6272 96.2072 22.3942 96.0519 22.2389C95.8967 22.0578 95.6637 21.9154 95.3532 21.8119C95.0426 21.7084 94.6414 21.6048 94.1497 21.5013L93.8003 21.4237V19.2496H101.72V24.2577L102.147 24.4518V45.338C102.147 45.4156 102.289 45.4803 102.574 45.5321C102.885 45.5838 103.234 45.6227 103.622 45.6485C104.01 45.6744 104.36 45.6874 104.67 45.6874H105.33V47.7838ZM108.048 39.5147C107.013 39.5147 106.081 39.3853 105.253 39.1265C104.45 38.8418 103.713 38.4147 103.04 37.8453C102.393 37.276 101.772 36.5383 101.176 35.6325L101.371 31.7503C101.811 32.7856 102.289 33.6655 102.807 34.3902C103.325 35.089 103.907 35.6325 104.554 36.0207C105.201 36.383 105.926 36.5642 106.728 36.5642C107.479 36.5642 108.139 36.396 108.708 36.0595C109.277 35.6972 109.743 35.1796 110.105 34.5067C110.468 33.8337 110.74 33.0444 110.921 32.1385C111.128 31.2068 111.231 30.1586 111.231 28.9939C111.231 27.8552 111.141 26.8458 110.96 25.9658C110.778 25.0859 110.507 24.3353 110.144 23.7142C109.782 23.093 109.329 22.6271 108.786 22.3166C108.268 22.006 107.66 21.8507 106.961 21.8507C106.133 21.8507 105.382 22.0578 104.709 22.4719C104.062 22.8601 103.454 23.4554 102.885 24.2577C102.341 25.0341 101.823 25.9788 101.332 27.0917L101.176 23.6753C101.823 22.5883 102.483 21.6954 103.156 20.9966C103.855 20.272 104.632 19.7414 105.486 19.4049C106.34 19.0426 107.31 18.8614 108.397 18.8614C110.183 18.8614 111.736 19.2885 113.056 20.1425C114.402 20.9707 115.437 22.1483 116.162 23.6753C116.912 25.2023 117.288 26.9752 117.288 28.9939C117.288 31.0644 116.899 32.8891 116.123 34.4678C115.346 36.0466 114.259 37.2889 112.862 38.1947C111.49 39.0747 109.885 39.5147 108.048 39.5147ZM126.022 29.3045C126.022 30.5209 126.139 31.595 126.372 32.5267C126.63 33.4585 127.006 34.2478 127.497 34.8949C127.989 35.516 128.584 35.9948 129.283 36.3313C130.008 36.6677 130.823 36.836 131.729 36.836C132.712 36.836 133.554 36.6548 134.252 36.2925C134.951 35.9042 135.559 35.4254 136.077 34.8561C136.595 34.2608 137.022 33.6655 137.358 33.0702L139.493 34.6619C139.002 35.5937 138.368 36.4348 137.591 37.1854C136.815 37.91 135.883 38.4794 134.796 38.8935C133.709 39.3076 132.428 39.5147 130.953 39.5147C128.804 39.5147 126.915 39.1006 125.285 38.2724C123.654 37.4442 122.373 36.2666 121.441 34.7396C120.535 33.1867 120.082 31.3621 120.082 29.2657C120.082 27.1952 120.522 25.3835 121.402 23.8306C122.308 22.2519 123.525 21.0355 125.052 20.1814C126.604 19.3014 128.339 18.8614 130.254 18.8614C131.807 18.8614 133.165 19.1073 134.33 19.599C135.521 20.0649 136.517 20.7637 137.319 21.6954C138.122 22.6272 138.73 23.7918 139.144 25.1894C139.558 26.587 139.765 28.2175 139.765 30.081H125.013V27.6352H135.106L134.136 28.6057C134.136 27.2858 134.058 26.1729 133.903 25.267C133.748 24.3612 133.515 23.6365 133.204 23.093C132.894 22.5236 132.492 22.1095 132.001 21.8507C131.535 21.5919 130.978 21.4625 130.331 21.4625C129.71 21.4625 129.128 21.6307 128.584 21.9672C128.067 22.2778 127.614 22.7566 127.226 23.4036C126.837 24.0506 126.54 24.8659 126.333 25.8494C126.126 26.8329 126.022 27.9846 126.022 29.3045ZM162.694 39.1265H151.513V37.0689H151.591C152.005 37.0689 152.419 37.056 152.833 37.0301C153.247 36.9783 153.584 36.9266 153.843 36.8748C154.127 36.823 154.27 36.7583 154.27 36.6807L149.145 30.081L149.029 29.9645L143.244 22.3942C143.037 22.1095 142.83 21.9025 142.623 21.7731C142.416 21.6178 142.183 21.5143 141.924 21.4625C141.665 21.3848 141.329 21.346 140.915 21.346V19.2496H151.94V21.346H151.863C151.474 21.346 151.073 21.359 150.659 21.3848C150.271 21.4107 149.947 21.4496 149.689 21.5013C149.43 21.5272 149.3 21.579 149.3 21.6566L154.192 28.0234L154.347 28.1787L160.132 35.7101C160.391 36.0207 160.624 36.2795 160.831 36.4866C161.063 36.6677 161.322 36.8101 161.607 36.9136C161.892 37.0171 162.241 37.0689 162.655 37.0689H162.694V39.1265ZM140.682 39.1265V37.0689H140.721C141.213 37.0689 141.665 36.9524 142.08 36.7195C142.494 36.4607 142.908 36.0854 143.322 35.5937L149.068 28.6057L151.047 29.8868L145.884 36.2536C145.884 36.4089 146.001 36.5513 146.234 36.6807C146.492 36.8101 146.816 36.9136 147.204 36.9913C147.592 37.043 147.981 37.0689 148.369 37.0689H148.408V39.1265H140.682ZM154.076 29.5375L152.251 28.101L157.104 22.0836C157.104 21.9284 156.987 21.7989 156.754 21.6954C156.521 21.566 156.224 21.4754 155.861 21.4237C155.499 21.3719 155.137 21.346 154.774 21.346H154.658V19.2496H162.228V21.346H162.189C161.827 21.346 161.491 21.3978 161.18 21.5013C160.895 21.6048 160.611 21.786 160.326 22.0448C160.041 22.3036 159.731 22.6401 159.394 23.0542L154.076 29.5375ZM185.499 29.1881C185.499 31.2068 185.046 33.0055 184.14 34.5843C183.235 36.1372 181.966 37.3536 180.336 38.2336C178.705 39.0876 176.79 39.5147 174.59 39.5147C172.416 39.5147 170.501 39.0876 168.845 38.2336C167.214 37.3536 165.946 36.1372 165.04 34.5843C164.134 33.0055 163.681 31.2068 163.681 29.1881C163.681 27.6611 163.94 26.2635 164.458 24.9953C164.975 23.7271 165.713 22.6401 166.671 21.7342C167.654 20.8284 168.806 20.1296 170.126 19.6379C171.471 19.1202 172.96 18.8614 174.59 18.8614C176.247 18.8614 177.735 19.1202 179.055 19.6379C180.401 20.1296 181.552 20.8284 182.51 21.7342C183.493 22.6401 184.231 23.7271 184.723 24.9953C185.24 26.2635 185.499 27.6611 185.499 29.1881ZM169.737 29.1881C169.737 30.8445 169.932 32.255 170.32 33.4196C170.708 34.5843 171.264 35.4643 171.989 36.0595C172.714 36.6548 173.581 36.9524 174.59 36.9524C175.625 36.9524 176.492 36.6548 177.191 36.0595C177.916 35.4643 178.472 34.5843 178.861 33.4196C179.249 32.255 179.443 30.8445 179.443 29.1881C179.443 27.5317 179.249 26.1341 178.861 24.9953C178.472 23.8306 177.916 22.9507 177.191 22.3554C176.492 21.7601 175.625 21.4625 174.59 21.4625C173.581 21.4625 172.714 21.7601 171.989 22.3554C171.264 22.9507 170.708 23.8306 170.32 24.9953C169.932 26.1341 169.737 27.5317 169.737 29.1881Z" fill="white"/>
<g clip-path="url(#clip0_317_372)">
<path d="M26.2154 21.2485C25.2345 21.2758 24.2764 21.3948 23.3489 21.5961C19.5084 22.6936 16.6904 26.2174 16.6904 30.3835C16.6904 35.4241 20.8157 39.5249 25.8862 39.5249C30.9567 39.5249 35.0819 35.424 35.0819 30.3835C35.082 25.4525 31.1341 21.4215 26.2154 21.2485Z" fill="white"/>
<path d="M44.3825 7.61587C39.442 2.70471 32.8734 0 25.8867 0C18.9 0 12.3315 2.70471 7.39117 7.61587C3.72475 11.2605 1.28228 15.797 0.265625 20.733C3.70329 14.5288 10.3459 10.3155 17.9605 10.3155C28.9861 10.3155 37.974 19.1483 38.1437 30.0694C38.1464 30.1738 38.1477 30.2785 38.1477 30.3835C38.1477 37.1043 32.6474 42.5722 25.8867 42.5722C19.126 42.5722 13.6257 37.1042 13.6257 30.3834C13.6257 29.5576 13.7092 28.7509 13.8673 27.9707C12.1726 30.4376 11.1803 33.4172 11.1803 36.6233C11.1803 44.9807 17.9199 51.8024 26.28 52C33.1194 51.9004 39.5348 49.2077 44.3823 44.3888C49.3227 39.4776 52.0436 32.9479 52.0436 26.0023C52.0436 19.0568 49.3227 12.5271 44.3825 7.61587Z" fill="white"/>
<path d="M30.9168 19.2689C27.7747 15.6541 23.1314 13.3628 17.9598 13.3628C8.51881 13.3628 0.837891 20.9984 0.837891 30.3836C0.837891 32.7592 1.32696 35.0723 2.26862 37.2078C3.53425 39.8391 5.25441 42.2656 7.39049 44.3889C8.86933 45.859 10.495 47.1298 12.2331 48.191C9.65887 45.0262 8.11443 41.0011 8.11443 36.6234C8.11443 27.8423 14.3251 20.477 22.6088 18.6378C23.6524 18.3497 24.7514 18.195 25.886 18.195C26.003 18.195 26.1195 18.1971 26.2356 18.2003C26.3742 18.1973 26.513 18.195 26.6523 18.195V18.2195C28.1635 18.3127 29.6017 18.6783 30.9168 19.2689Z" fill="white"/>
</g>
<defs>
<clipPath id="clip0_317_372">
<rect width="52.3088" height="52" fill="white"/>
</clipPath>
</defs>
</svg>
