<svg width="155" height="40" viewBox="0 0 155 40" fill="none" xmlns="http://www.w3.org/2000/svg">
<path d="M55.5936 21.3575H64.1136V23.3675H55.4736L55.5936 21.3575ZM59.2236 10.7975L60.0336 11.9675L54.6636 28.1075C54.6636 28.2075 54.7636 28.3075 54.9636 28.4075C55.1836 28.4875 55.4436 28.5475 55.7436 28.5875C56.0636 28.6275 56.3936 28.6475 56.7336 28.6475H57.1536V30.4175H50.7036V28.6475H50.8536C51.3136 28.6475 51.6736 28.5675 51.9336 28.4075C52.2136 28.2275 52.4436 27.8775 52.6236 27.3575L58.7436 9.11748H63.4536L69.7836 27.8075C69.9036 28.1675 70.1036 28.3975 70.3836 28.4975C70.6636 28.5975 71.0236 28.6475 71.4636 28.6475H71.6136V30.4175H62.4636V28.6475H62.9736C63.2936 28.6475 63.6136 28.6375 63.9336 28.6175C64.2536 28.5975 64.5136 28.5675 64.7136 28.5275C64.9336 28.4675 65.0436 28.4075 65.0436 28.3475L59.2236 10.7975ZM81.4231 37.1075H72.4831V35.4575H72.5431C72.9031 35.4575 73.2231 35.4275 73.5031 35.3675C73.7831 35.3075 74.0031 35.2075 74.1631 35.0675C74.3231 34.9275 74.4031 34.7375 74.4031 34.4975V17.9975C74.4031 17.7375 74.3431 17.5475 74.2231 17.4275C74.1031 17.3075 73.9231 17.2075 73.6831 17.1275C73.4431 17.0275 73.1331 16.9375 72.7531 16.8575L72.4831 16.7975V15.0875H78.6031V18.9875L78.9331 19.1375V35.1575C78.9331 35.2175 79.0431 35.2675 79.2631 35.3075C79.5031 35.3675 79.7731 35.4075 80.0731 35.4275C80.3731 35.4475 80.6531 35.4575 80.9131 35.4575H81.4231V37.1075ZM83.5231 30.7175C82.7231 30.7175 82.0131 30.6175 81.3931 30.4175C80.7731 30.2175 80.2031 29.9075 79.6831 29.4875C79.1831 29.0675 78.7131 28.5275 78.2731 27.8675L78.3331 24.6875C78.6931 25.4675 79.0731 26.1375 79.4731 26.6975C79.8731 27.2375 80.3131 27.6575 80.7931 27.9575C81.2931 28.2375 81.8531 28.3775 82.4731 28.3775C83.0531 28.3775 83.5631 28.2475 84.0031 27.9875C84.4431 27.7075 84.8031 27.3175 85.0831 26.8175C85.3631 26.2975 85.5731 25.6875 85.7131 24.9875C85.8531 24.2875 85.9231 23.4975 85.9231 22.6175C85.9231 21.7375 85.8531 20.9675 85.7131 20.3075C85.5931 19.6275 85.3931 19.0475 85.1131 18.5675C84.8331 18.0875 84.4831 17.7275 84.0631 17.4875C83.6631 17.2475 83.1931 17.1275 82.6531 17.1275C82.0331 17.1275 81.4631 17.2875 80.9431 17.6075C80.4431 17.9275 79.9731 18.3875 79.5331 18.9875C79.1131 19.5875 78.7131 20.3075 78.3331 21.1475L78.2731 18.3575C78.7731 17.5375 79.2831 16.8675 79.8031 16.3475C80.3231 15.8275 80.9031 15.4375 81.5431 15.1775C82.1831 14.9175 82.9231 14.7875 83.7631 14.7875C85.1431 14.7875 86.3431 15.1175 87.3631 15.7775C88.4031 16.4175 89.2031 17.3275 89.7631 18.5075C90.3431 19.6675 90.6331 21.0375 90.6331 22.6175C90.6331 24.1975 90.3331 25.5975 89.7331 26.8175C89.1331 28.0375 88.2931 28.9975 87.2131 29.6975C86.1531 30.3775 84.9231 30.7175 83.5231 30.7175ZM97.3829 22.8275C97.3829 23.7475 97.4729 24.5675 97.6529 25.2875C97.8529 26.0075 98.1429 26.6075 98.5229 27.0875C98.9029 27.5675 99.3629 27.9375 99.9029 28.1975C100.463 28.4375 101.093 28.5575 101.793 28.5575C102.533 28.5575 103.173 28.4175 103.713 28.1375C104.253 27.8375 104.713 27.4675 105.093 27.0275C105.493 26.5875 105.823 26.1375 106.083 25.6775L107.793 26.9675C107.413 27.6875 106.923 28.3375 106.323 28.9175C105.723 29.4775 105.003 29.9175 104.163 30.2375C103.323 30.5575 102.333 30.7175 101.193 30.7175C99.5329 30.7175 98.0729 30.3975 96.8129 29.7575C95.5529 29.1175 94.5629 28.2075 93.8429 27.0275C93.1429 25.8275 92.7929 24.4175 92.7929 22.7975C92.7929 21.1975 93.1329 19.7975 93.8129 18.5975C94.5129 17.3975 95.4529 16.4675 96.6329 15.8075C97.8329 15.1275 99.1729 14.7875 100.653 14.7875C101.853 14.7875 102.903 14.9675 103.803 15.3275C104.723 15.6875 105.493 16.2375 106.113 16.9775C106.733 17.6975 107.203 18.6075 107.523 19.7075C107.863 20.7875 108.033 22.0575 108.033 23.5175H96.7229V21.5675H104.403L103.653 22.3475C103.633 21.3475 103.563 20.4975 103.443 19.7975C103.323 19.0975 103.143 18.5375 102.903 18.1175C102.683 17.6775 102.383 17.3575 102.003 17.1575C101.643 16.9575 101.213 16.8575 100.713 16.8575C100.233 16.8575 99.7929 16.9875 99.3929 17.2475C98.9929 17.4875 98.6429 17.8575 98.3429 18.3575C98.0429 18.8375 97.8029 19.4575 97.6229 20.2175C97.4629 20.9575 97.3829 21.8275 97.3829 22.8275ZM125.781 30.4175H117.081V28.7675H117.141C117.481 28.7675 117.811 28.7575 118.131 28.7375C118.451 28.7175 118.721 28.6875 118.941 28.6475C119.161 28.6075 119.271 28.5575 119.271 28.4975L115.281 23.4275L115.191 23.3375L110.721 17.5475C110.561 17.3275 110.401 17.1675 110.241 17.0675C110.081 16.9475 109.901 16.8675 109.701 16.8275C109.501 16.7875 109.241 16.7675 108.921 16.7675H108.891V15.0875H117.501V16.7375H117.441C117.121 16.7375 116.801 16.7475 116.481 16.7675C116.181 16.7875 115.931 16.8175 115.731 16.8575C115.531 16.8775 115.431 16.9175 115.431 16.9775L119.241 21.8975L119.361 22.0175L123.801 27.7475C124.001 27.9675 124.181 28.1575 124.341 28.3175C124.521 28.4775 124.721 28.5975 124.941 28.6775C125.161 28.7375 125.431 28.7675 125.751 28.7675H125.781V30.4175ZM108.711 30.4175V28.7675H108.741C109.121 28.7675 109.471 28.6775 109.791 28.4975C110.131 28.2975 110.451 28.0075 110.751 27.6275L115.191 22.3175L116.781 23.3075L112.821 28.1675C112.821 28.2875 112.911 28.3975 113.091 28.4975C113.291 28.5775 113.541 28.6475 113.841 28.7075C114.141 28.7475 114.441 28.7675 114.741 28.7675H114.801V30.4175H108.711ZM119.151 23.0375L117.651 21.9275L121.401 17.3375C121.401 17.2175 121.311 17.1175 121.131 17.0375C120.951 16.9375 120.721 16.8675 120.441 16.8275C120.161 16.7675 119.871 16.7375 119.571 16.7375H119.481V15.0875H125.451V16.7375H125.421C125.141 16.7375 124.881 16.7875 124.641 16.8875C124.401 16.9675 124.171 17.1075 123.951 17.3075C123.751 17.5075 123.511 17.7675 123.231 18.0875L119.151 23.0375ZM143.433 22.7375C143.433 24.2975 143.083 25.6875 142.383 26.9075C141.683 28.1075 140.693 29.0475 139.413 29.7275C138.153 30.3875 136.673 30.7175 134.973 30.7175C133.293 30.7175 131.813 30.3875 130.533 29.7275C129.273 29.0475 128.293 28.1075 127.593 26.9075C126.893 25.6875 126.543 24.2975 126.543 22.7375C126.543 21.5775 126.743 20.5075 127.143 19.5275C127.543 18.5475 128.113 17.7075 128.853 17.0075C129.613 16.2875 130.503 15.7375 131.523 15.3575C132.563 14.9775 133.713 14.7875 134.973 14.7875C136.253 14.7875 137.403 14.9775 138.423 15.3575C139.463 15.7375 140.353 16.2875 141.093 17.0075C141.853 17.7075 142.433 18.5475 142.833 19.5275C143.233 20.5075 143.433 21.5775 143.433 22.7375ZM131.253 22.7375C131.253 23.9975 131.393 25.0775 131.673 25.9775C131.973 26.8575 132.403 27.5275 132.963 27.9875C133.523 28.4475 134.193 28.6775 134.973 28.6775C135.773 28.6775 136.443 28.4475 136.983 27.9875C137.543 27.5275 137.973 26.8575 138.273 25.9775C138.573 25.0775 138.723 23.9975 138.723 22.7375C138.723 21.4775 138.573 20.4175 138.273 19.5575C137.973 18.6775 137.543 18.0075 136.983 17.5475C136.443 17.0875 135.773 16.8575 134.973 16.8575C134.193 16.8575 133.523 17.0875 132.963 17.5475C132.403 18.0075 131.973 18.6775 131.673 19.5575C131.393 20.4175 131.253 21.4775 131.253 22.7375Z" fill="white"/>
<g clip-path="url(#clip0_121_1279)">
<path d="M20.2651 16.3475C19.5068 16.3685 18.7662 16.46 18.0492 16.6147C15.0806 17.4583 12.9023 20.167 12.9023 23.3694C12.9023 27.244 16.0911 30.3962 20.0105 30.3962C23.93 30.3962 27.1187 27.244 27.1187 23.3694C27.1188 19.5791 24.0671 16.4805 20.2651 16.3475Z" fill="#5EEAD4"/>
<path d="M34.3069 5.86846C30.4879 2.09334 25.4105 0.0142822 20.0099 0.0142822C14.6093 0.0142822 9.53185 2.09334 5.71304 5.86846C2.87894 8.67005 0.990937 12.1572 0.205078 15.9513C2.86236 11.1823 7.99701 7.94361 13.883 7.94361C22.4057 7.94361 29.3532 14.7332 29.4844 23.1281C29.4865 23.2083 29.4875 23.2888 29.4875 23.3695C29.4875 28.5357 25.2358 32.7387 20.0099 32.7387C14.7839 32.7387 10.5323 28.5356 10.5323 23.3695C10.5323 22.7347 10.5968 22.1146 10.719 21.5149C9.40905 23.4111 8.64198 25.7015 8.64198 28.166C8.64198 34.5901 13.8517 39.8338 20.3139 39.9857C25.6007 39.9091 30.5597 37.8394 34.3067 34.1351C38.1256 30.36 40.2288 25.3407 40.2288 20.0018C40.2288 14.6629 38.1256 9.64365 34.3069 5.86846Z" fill="#5EEAD4"/>
<path d="M23.8981 14.8256C21.4693 12.0471 17.8801 10.2858 13.8825 10.2858C6.58472 10.2858 0.647461 16.1551 0.647461 23.3694C0.647461 25.1954 1.0255 26.9734 1.7534 28.615C2.73171 30.6376 4.06138 32.5029 5.71254 34.135C6.85567 35.265 8.11229 36.2418 9.45585 37.0576C7.46598 34.6249 6.27214 31.5308 6.27214 28.1658C6.27214 21.4159 11.0729 15.7544 17.4761 14.3406C18.2828 14.1191 19.1323 14.0002 20.0094 14.0002C20.0998 14.0002 20.1898 14.0018 20.2796 14.0043C20.3867 14.0019 20.494 14.0002 20.6017 14.0002V14.019C21.7699 14.0907 22.8816 14.3717 23.8981 14.8256Z" fill="#5EEAD4"/>
</g>
<defs>
<clipPath id="clip0_121_1279">
<rect width="40.4341" height="39.9714" fill="white" transform="translate(0 0.0142822)"/>
</clipPath>
</defs>
</svg>
